<svg width="15" height="15" viewBox="0 0 15 15" fill="none" xmlns="http://www.w3.org/2000/svg">
<path d="M7.17486 2.18677C7.20129 2.12228 7.24631 2.06712 7.30418 2.0283C7.36206 1.98948 7.43017 1.96875 7.49986 1.96875C7.56955 1.96875 7.63766 1.98948 7.69553 2.0283C7.75341 2.06712 7.79842 2.12228 7.82486 2.18677L9.15298 5.38114C9.17784 5.44091 9.21871 5.49267 9.27109 5.53071C9.32347 5.56875 9.38533 5.59161 9.44986 5.59676L12.8986 5.87302C13.2105 5.89802 13.3367 6.28739 13.0992 6.49052L10.4717 8.74177C10.4226 8.78376 10.3861 8.83846 10.366 8.89986C10.3459 8.96127 10.3432 9.02701 10.358 9.08989L11.1611 12.4555C11.1773 12.523 11.173 12.5938 11.149 12.659C11.1249 12.7241 11.0821 12.7806 11.0259 12.8214C10.9697 12.8622 10.9027 12.8854 10.8333 12.8882C10.764 12.8909 10.6953 12.873 10.6361 12.8368L7.68298 11.0336C7.62784 11 7.56448 10.9821 7.49986 10.9821C7.43524 10.9821 7.37187 11 7.31673 11.0336L4.36361 12.8374C4.30439 12.8736 4.23577 12.8915 4.16639 12.8888C4.09702 12.886 4.03002 12.8628 3.97384 12.822C3.91766 12.7812 3.87483 12.7247 3.85077 12.6596C3.8267 12.5945 3.82247 12.5237 3.83861 12.4561L4.64173 9.08989C4.65663 9.02701 4.65389 8.96125 4.63382 8.89983C4.61375 8.83841 4.57713 8.78372 4.52798 8.74177L1.90048 6.49052C1.84757 6.44541 1.80924 6.38562 1.79033 6.31871C1.77143 6.25181 1.77281 6.18079 1.79429 6.11467C1.81577 6.04855 1.8564 5.99029 1.91102 5.94727C1.96563 5.90425 2.03179 5.87841 2.10111 5.87302L5.54986 5.59676C5.61439 5.59161 5.67625 5.56875 5.72863 5.53071C5.781 5.49267 5.82187 5.44091 5.84673 5.38114L7.17486 2.18677Z" stroke="#7C7C7C" stroke-linecap="round" stroke-linejoin="round"/>
</svg>
