<svg width="347" height="47" viewBox="0 0 347 47" fill="none" xmlns="http://www.w3.org/2000/svg">
<path d="M332.623 22.3359H321.211C321.163 22.9119 321.139 23.3439 321.139 23.6319C321.139 25.6959 321.595 27.3999 322.507 28.7439C323.419 30.0879 324.811 30.7599 326.683 30.7599C328.555 30.7599 330.283 30.1239 331.867 28.8519C332.107 29.0199 332.227 29.2599 332.227 29.5719C332.227 30.1959 331.579 30.8439 330.283 31.5159C328.987 32.1879 327.571 32.5239 326.035 32.5239C323.923 32.5239 322.207 31.8039 320.887 30.3639C319.567 28.8999 318.907 26.6799 318.907 23.7039C318.907 20.7279 319.699 18.3639 321.283 16.6119C322.867 14.8599 324.763 13.9839 326.971 13.9839C328.003 13.9839 328.903 14.1879 329.671 14.5959C330.439 15.0039 331.027 15.5439 331.435 16.2159C332.227 17.5599 332.623 19.0479 332.623 20.6799V22.3359ZM330.391 20.9319C330.439 19.3719 330.127 18.0759 329.455 17.0439C328.783 16.0119 327.823 15.4959 326.575 15.4959C325.327 15.4959 324.235 15.9999 323.299 17.0079C322.387 17.9919 321.763 19.2999 321.427 20.9319H330.391Z" fill="black"/>
<path d="M315.708 31.9839H309.192V31.7319C309.192 31.2519 309.348 30.9519 309.66 30.8319C309.828 30.7599 310.536 30.6759 311.784 30.5799V21.5439C311.784 19.6959 311.388 18.2919 310.596 17.3319C309.828 16.3719 308.736 15.8919 307.32 15.8919C306.288 15.8919 305.376 16.1199 304.584 16.5759C303.816 17.0319 302.952 17.7159 301.992 18.6279C302.208 19.2759 302.316 20.1399 302.316 21.2199V30.5079L305.088 30.7239C305.184 31.5639 304.908 31.9839 304.26 31.9839H297.744V31.7319C297.744 31.2519 297.9 30.9519 298.212 30.8319C298.38 30.7599 299.088 30.6759 300.336 30.5799V21.5439C300.336 19.7199 299.928 18.3279 299.112 17.3679C298.296 16.3839 297.18 15.8919 295.764 15.8919C294.78 15.8919 293.904 16.0959 293.136 16.5039C292.392 16.9119 291.6 17.5239 290.76 18.3399V30.5079L293.532 30.7239C293.604 31.5639 293.328 31.9839 292.704 31.9839H286.152V31.7319C286.152 31.2519 286.308 30.9519 286.62 30.8319C286.788 30.7599 287.508 30.6759 288.78 30.5799V15.9279H287.124C286.404 15.9279 286.044 15.4719 286.044 14.5599L290.184 13.9839L290.652 16.5759H290.76C292.344 14.8479 294.144 13.9839 296.16 13.9839C297.264 13.9839 298.308 14.2599 299.292 14.8119C300.276 15.3639 301.032 16.2279 301.56 17.4039C302.064 16.7559 302.544 16.2159 303 15.7839C303.456 15.3519 304.104 14.9439 304.944 14.5599C305.808 14.1759 306.732 13.9839 307.716 13.9839C309.324 13.9839 310.728 14.5599 311.928 15.7119C313.152 16.8639 313.764 18.6999 313.764 21.2199V30.5079L316.536 30.7239C316.632 31.5639 316.356 31.9839 315.708 31.9839Z" fill="black"/>
<path d="M272.28 31.9839V25.9839H276.28V31.9839H281.28V23.9839H284.28L274.28 14.9839L264.28 23.9839H267.28V31.9839H272.28Z" fill="black"/>
<path d="M274.28 33.9839L273.555 33.2645C270.98 30.7196 269.28 29.0411 269.28 26.9812C269.28 25.3027 270.49 23.9839 272.03 23.9839C272.9 23.9839 273.735 24.4253 274.28 25.1229C274.825 24.4253 275.66 23.9839 276.53 23.9839C278.07 23.9839 279.28 25.3027 279.28 26.9812C279.28 29.0411 277.58 30.7196 275.005 33.27L274.28 33.9839Z" fill="white"/>
<path d="M262.486 31.9841H255.79V31.6961C255.79 31.1681 255.946 30.8321 256.258 30.6881C256.402 30.6161 256.582 30.5681 256.798 30.5441L258.598 30.4361V20.6081H246.251V30.3641L248.915 30.5801C249.011 31.5161 248.735 31.9841 248.087 31.9841H241.354V31.6961C241.354 31.1681 241.51 30.8321 241.822 30.6881C241.966 30.6161 242.147 30.5681 242.363 30.5441L244.163 30.4361V9.30408L241.535 9.08808C241.439 8.15208 241.715 7.68408 242.363 7.68408H249.094V7.93608C249.094 8.46408 248.938 8.81208 248.626 8.98008C248.482 9.05208 248.303 9.10008 248.087 9.12408L246.286 9.23208V18.9881H258.598V9.30408L255.971 9.08808C255.875 8.15208 256.15 7.68408 256.798 7.68408H263.494V7.93608C263.494 8.46408 263.339 8.81208 263.027 8.98008C262.883 9.05208 262.702 9.10008 262.486 9.12408L260.687 9.23208V30.3641L263.314 30.5801C263.41 31.5161 263.134 31.9841 262.486 31.9841Z" fill="black"/>
<path d="M221.173 26.4042C220.741 26.4042 220.213 26.3562 219.589 26.2602C218.773 27.1242 218.401 27.7242 218.473 28.0602C218.545 28.3722 219.541 28.5522 221.461 28.6002C224.533 28.6482 226.681 28.9962 227.905 29.6442C229.153 30.2682 229.777 31.5162 229.777 33.3882C229.777 35.2842 229.021 36.8682 227.509 38.1402C226.021 39.4122 224.077 40.0482 221.677 40.0482C219.301 40.0482 217.489 39.5922 216.241 38.6802C214.993 37.7922 214.369 36.6402 214.369 35.2242C214.369 33.2562 215.401 31.5642 217.465 30.1482C216.769 29.8842 216.421 29.3802 216.421 28.6362C216.421 27.8922 217.021 26.9442 218.221 25.7922C216.421 24.9042 215.437 23.4282 215.269 21.3642C215.101 19.3002 215.605 17.5602 216.781 16.1442C217.957 14.7042 219.565 13.9842 221.605 13.9842C223.021 13.9842 224.233 14.3322 225.241 15.0282L229.453 13.9482C229.669 14.2362 229.789 14.5602 229.813 14.9202C229.837 15.2562 229.717 15.5442 229.453 15.7842C229.093 15.9762 228.025 16.0482 226.249 16.0002C227.065 17.0322 227.449 18.4122 227.401 20.1402C227.377 21.8682 226.825 23.3442 225.745 24.5682C224.689 25.7922 223.165 26.4042 221.173 26.4042ZM221.389 15.4242C220.117 15.4482 219.109 15.9282 218.365 16.8642C217.621 17.7762 217.249 18.8802 217.249 20.1762C217.249 21.4482 217.609 22.5762 218.329 23.5602C219.049 24.5442 220.045 25.0242 221.317 25.0002C222.589 24.9762 223.585 24.4842 224.305 23.5242C225.049 22.5402 225.421 21.4122 225.421 20.1402C225.421 18.8442 225.061 17.7282 224.341 16.7922C223.645 15.8322 222.661 15.3762 221.389 15.4242ZM216.205 34.6482C216.205 35.7762 216.733 36.6402 217.789 37.2402C218.845 37.8642 220.297 38.1762 222.145 38.1762C223.993 38.1762 225.469 37.7322 226.573 36.8442C227.677 35.9562 228.229 34.9002 228.229 33.6762C228.229 32.1882 227.305 31.2762 225.457 30.9402C224.401 30.7482 223.069 30.6282 221.461 30.5802C219.853 30.5322 218.881 30.4842 218.545 30.4362C217.849 30.9402 217.285 31.5762 216.853 32.3442C216.421 33.1362 216.205 33.9042 216.205 34.6482Z" fill="black"/>
<path d="M211.975 31.9839H205.603V31.7319C205.603 31.2519 205.759 30.9519 206.071 30.8319C206.239 30.7359 206.983 30.6519 208.303 30.5799V21.1479C208.303 17.5719 206.911 15.7839 204.127 15.7839C203.119 15.7839 202.183 15.9879 201.319 16.3959C200.479 16.8039 199.531 17.4639 198.475 18.3759V30.5079L201.031 30.7239C201.103 31.5639 200.827 31.9839 200.203 31.9839H193.795V31.7319C193.795 31.2519 193.951 30.9519 194.263 30.8319C194.431 30.7359 195.175 30.6519 196.495 30.5799V16.0359L194.479 15.8199C193.999 15.7719 193.759 15.3519 193.759 14.5599L197.899 13.9839L198.403 16.8639H198.511C200.527 14.9439 202.579 13.9839 204.667 13.9839C206.203 13.9839 207.523 14.5359 208.627 15.6399C209.731 16.7199 210.283 18.4239 210.283 20.7519V30.5079L212.803 30.7239C212.899 31.5639 212.623 31.9839 211.975 31.9839Z" fill="black"/>
<path d="M190.223 31.984H183.671V31.732C183.671 31.252 183.827 30.952 184.139 30.832C184.307 30.76 185.027 30.676 186.299 30.58V16.036L184.283 15.856C183.803 15.808 183.563 15.364 183.563 14.524L188.279 13.984V30.508L191.051 30.724C191.123 31.564 190.847 31.984 190.223 31.984ZM188.099 10.456C187.835 10.744 187.463 10.888 186.983 10.888C186.503 10.888 186.119 10.744 185.831 10.456C185.567 10.168 185.435 9.79599 185.435 9.33999C185.435 8.88399 185.567 8.51199 185.831 8.22399C186.119 7.93599 186.503 7.79199 186.983 7.79199C187.463 7.79199 187.835 7.93599 188.099 8.22399C188.387 8.51199 188.531 8.88399 188.531 9.33999C188.531 9.79599 188.387 10.168 188.099 10.456Z" fill="black"/>
<path d="M180.04 31.9839H173.524V31.7319C173.524 31.2519 173.68 30.9519 173.992 30.8319C174.16 30.7599 174.868 30.6759 176.116 30.5799V21.5439C176.116 19.6959 175.72 18.2919 174.928 17.3319C174.16 16.3719 173.068 15.8919 171.652 15.8919C170.62 15.8919 169.708 16.1199 168.916 16.5759C168.148 17.0319 167.284 17.7159 166.324 18.6279C166.54 19.2759 166.648 20.1399 166.648 21.2199V30.5079L169.42 30.7239C169.516 31.5639 169.24 31.9839 168.592 31.9839H162.076V31.7319C162.076 31.2519 162.232 30.9519 162.544 30.8319C162.712 30.7599 163.42 30.6759 164.668 30.5799V21.5439C164.668 19.7199 164.26 18.3279 163.444 17.3679C162.628 16.3839 161.512 15.8919 160.096 15.8919C159.112 15.8919 158.236 16.0959 157.468 16.5039C156.724 16.9119 155.932 17.5239 155.092 18.3399V30.5079L157.864 30.7239C157.936 31.5639 157.66 31.9839 157.036 31.9839H150.484V31.7319C150.484 31.2519 150.64 30.9519 150.952 30.8319C151.12 30.7599 151.84 30.6759 153.112 30.5799V15.9279H151.456C150.736 15.9279 150.376 15.4719 150.376 14.5599L154.516 13.9839L154.984 16.5759H155.092C156.676 14.8479 158.476 13.9839 160.492 13.9839C161.596 13.9839 162.64 14.2599 163.624 14.8119C164.608 15.3639 165.364 16.2279 165.892 17.4039C166.396 16.7559 166.876 16.2159 167.332 15.7839C167.788 15.3519 168.436 14.9439 169.276 14.5599C170.14 14.1759 171.064 13.9839 172.048 13.9839C173.656 13.9839 175.06 14.5599 176.26 15.7119C177.484 16.8639 178.096 18.6999 178.096 21.2199V30.5079L180.868 30.7239C180.964 31.5639 180.688 31.9839 180.04 31.9839Z" fill="black"/>
<path d="M135.651 17.8359C134.715 19.2759 134.247 21.0999 134.247 23.3079C134.247 25.5159 134.691 27.3399 135.579 28.7799C136.491 30.2199 137.811 30.9279 139.539 30.9039C141.291 30.8799 142.635 30.1599 143.571 28.7439C144.531 27.3279 145.011 25.5279 145.011 23.3439C145.011 21.1599 144.567 19.3239 143.679 17.8359C142.791 16.3239 141.471 15.5799 139.719 15.6039C137.967 15.6279 136.611 16.3719 135.651 17.8359ZM139.863 13.9839C141.519 13.9839 143.067 14.4879 144.507 15.4959C145.299 16.0719 145.935 16.9719 146.415 18.1959C146.895 19.3959 147.147 20.8599 147.171 22.5879C147.219 25.5399 146.535 27.9399 145.119 29.7879C143.727 31.6119 141.843 32.5239 139.467 32.5239C137.091 32.5239 135.279 31.7679 134.031 30.2559C132.783 28.7439 132.135 26.5599 132.087 23.7039C132.063 20.8239 132.759 18.4839 134.175 16.6839C135.615 14.8839 137.511 13.9839 139.863 13.9839Z" fill="black"/>
<path d="M117.686 17.8359C116.75 19.2759 116.282 21.0999 116.282 23.3079C116.282 25.5159 116.726 27.3399 117.614 28.7799C118.526 30.2199 119.846 30.9279 121.574 30.9039C123.326 30.8799 124.67 30.1599 125.606 28.7439C126.566 27.3279 127.046 25.5279 127.046 23.3439C127.046 21.1599 126.602 19.3239 125.714 17.8359C124.826 16.3239 123.506 15.5799 121.754 15.6039C120.002 15.6279 118.646 16.3719 117.686 17.8359ZM121.898 13.9839C123.554 13.9839 125.102 14.4879 126.542 15.4959C127.334 16.0719 127.97 16.9719 128.45 18.1959C128.93 19.3959 129.182 20.8599 129.206 22.5879C129.254 25.5399 128.57 27.9399 127.154 29.7879C125.762 31.6119 123.878 32.5239 121.502 32.5239C119.126 32.5239 117.314 31.7679 116.066 30.2559C114.818 28.7439 114.17 26.5599 114.122 23.7039C114.098 20.8239 114.794 18.4839 116.21 16.6839C117.65 14.8839 119.546 13.9839 121.898 13.9839Z" fill="black"/>
<path d="M110.906 31.9841H104.498V31.7321C104.498 31.2521 104.654 30.9521 104.966 30.8321C105.134 30.7361 105.878 30.6521 107.198 30.5801V9.19613L105.182 8.98013C104.702 8.93213 104.462 8.50013 104.462 7.68413L109.178 7.03613V30.5081L111.734 30.7241C111.806 31.5641 111.53 31.9841 110.906 31.9841Z" fill="black"/>
<path d="M86.093 7.61182H93.437C95.693 7.61182 97.409 8.17582 98.585 9.30382C99.785 10.4318 100.385 11.8598 100.385 13.5878C100.385 16.0838 99.101 17.8958 96.533 19.0238C97.901 19.3118 99.077 19.9718 100.061 21.0038C101.069 22.0358 101.585 23.3438 101.609 24.9278C101.633 27.1358 100.901 28.8638 99.413 30.1118C97.949 31.3598 96.017 31.9838 93.617 31.9838H85.085C85.085 31.9838 85.085 31.8878 85.085 31.6958C85.085 31.1678 85.241 30.8318 85.553 30.6878C85.697 30.6158 85.877 30.5678 86.093 30.5438L87.893 30.4358V9.23182L85.265 9.01582C85.169 8.07982 85.445 7.61182 86.093 7.61182ZM89.981 9.15982V18.5918H91.745C94.001 18.5918 95.633 18.1718 96.641 17.3318C97.649 16.4918 98.153 15.2558 98.153 13.6238C98.153 11.9678 97.601 10.7678 96.497 10.0238C95.417 9.25582 93.857 8.93182 91.817 9.05182L90.017 9.15982H89.981ZM92.717 30.4718C95.165 30.4958 96.881 30.0638 97.865 29.1758C98.873 28.2638 99.377 26.8958 99.377 25.0718C99.377 23.2238 98.813 21.9158 97.685 21.1478C96.581 20.3558 94.745 19.9838 92.177 20.0318L89.981 20.0678V30.4358L92.717 30.4718Z" fill="black"/>
<path d="M72.8188 22.3359H61.4068C61.3588 22.9119 61.3348 23.3439 61.3348 23.6319C61.3348 25.6959 61.7908 27.3999 62.7028 28.7439C63.6148 30.0879 65.0068 30.7599 66.8788 30.7599C68.7508 30.7599 70.4788 30.1239 72.0628 28.8519C72.3028 29.0199 72.4228 29.2599 72.4228 29.5719C72.4228 30.1959 71.7748 30.8439 70.4788 31.5159C69.1828 32.1879 67.7668 32.5239 66.2308 32.5239C64.1188 32.5239 62.4028 31.8039 61.0828 30.3639C59.7628 28.8999 59.1028 26.6799 59.1028 23.7039C59.1028 20.7279 59.8948 18.3639 61.4788 16.6119C63.0628 14.8599 64.9588 13.9839 67.1668 13.9839C68.1988 13.9839 69.0988 14.1879 69.8668 14.5959C70.6348 15.0039 71.2228 15.5439 71.6308 16.2159C72.4228 17.5599 72.8188 19.0479 72.8188 20.6799V22.3359ZM70.5868 20.9319C70.6348 19.3719 70.3228 18.0759 69.6508 17.0439C68.9788 16.0119 68.0188 15.4959 66.7708 15.4959C65.5228 15.4959 64.4308 15.9999 63.4948 17.0079C62.5828 17.9919 61.9588 19.2999 61.6228 20.9319H70.5868Z" fill="black"/>
<path d="M55.8869 31.984H49.3709V31.732C49.3709 31.252 49.5269 30.952 49.8389 30.832C50.0069 30.76 50.7149 30.676 51.9629 30.58V21.508C51.9629 19.66 51.5669 18.256 50.7749 17.296C50.0069 16.336 48.9989 15.856 47.7509 15.856C46.5029 15.856 45.4829 16.06 44.6909 16.468C43.8989 16.876 43.0469 17.488 42.1349 18.304V30.508L44.9069 30.724C44.9789 31.564 44.7029 31.984 44.0789 31.984H37.5269V31.732C37.5269 31.252 37.6829 30.952 37.9949 30.832C38.1629 30.76 38.8829 30.676 40.1549 30.58V9.232L38.1389 9.016C37.6589 8.968 37.4189 8.512 37.4189 7.648L42.1349 7V16.576C43.7189 14.848 45.6389 13.984 47.8949 13.984C49.5029 13.984 50.8949 14.56 52.0709 15.712C53.2709 16.84 53.8829 18.664 53.9069 21.184L53.9429 30.508L56.7149 30.724C56.7869 31.564 56.5109 31.984 55.8869 31.984Z" fill="black"/>
<path d="M15 7.68408H34.944V11.8241C34.944 12.4721 34.476 12.7481 33.54 12.6521L33.324 9.30408H26.088V30.3641L28.752 30.5801C28.848 31.5161 28.572 31.9841 27.924 31.9841H21.192C21.192 31.9841 21.192 31.8881 21.192 31.6961C21.192 31.1681 21.348 30.8321 21.66 30.6881C21.804 30.6161 21.984 30.5681 22.2 30.5441L24 30.4361V9.30408H16.62L16.404 12.6521C15.468 12.7481 15 12.4721 15 11.8241V7.68408Z" fill="black"/>
</svg>

