<svg width="512" height="512" xmlns="http://www.w3.org/2000/svg" preserveAspectRatio="xMidYMid meet" version="1.0">
 <g fill="#10B981">
  <path id="svg_2" d="m331.13355,3.83525c-1.48082,1.72575 -8.20145,14.0715 -15.1499,27.61199c-62.42215,121.46621 -101.26513,231.78141 -112.88385,319.92738c-2.73382,21.23999 -2.73382,60.79948 0,73.67622c2.84773,12.87675 6.60672,22.03649 12.18827,29.07224c13.21345,16.59374 35.99525,18.58499 48.29743,4.248c5.92327,-6.77025 8.54318,-15.00074 9.45445,-28.67399c0.79736,-12.744 -1.13909,-21.10724 -8.20145,-34.51499c-6.72063,-13.14225 -8.54318,-20.31074 -9.34054,-37.83374c-3.18945,-72.48147 26.5408,-192.88568 77.23032,-312.09514c7.40409,-17.65574 13.55517,-33.32024 13.55517,-34.91324c0,-1.593 -1.253,-4.38075 -2.84773,-6.1065c-3.53118,-4.248 -8.8849,-4.38075 -12.30218,-0.39825l0,0zm-83.95095,249.83541c-7.29018,38.23199 -11.04918,78.45522 -9.91009,105.00521c1.02518,22.83299 3.64509,32.92199 12.98563,49.25023c2.96164,5.31 4.10073,8.7615 4.55636,14.73524c1.59473,20.17799 -7.29018,29.20499 -20.95926,21.50549c-8.99881,-5.0445 -13.55517,-18.31949 -14.69427,-43.01098c-1.93645,-38.23199 7.63191,-92.79222 26.99644,-155.31744c1.93645,-6.23925 3.759,-11.151 3.98682,-10.8855c0.22782,0.2655 -1.13909,8.62875 -2.96164,18.71774l0,0z"/>
  <path id="svg_3" d="m204.83283,53.58039c-1.54901,1.71496 -1.93627,3.06888 -1.93627,6.58907c0,7.40143 -2.63332,15.70547 -6.27351,19.94775c-3.64018,4.24228 -10.76565,7.31117 -17.1166,7.31117c-4.64704,0 -7.59017,2.7981 -7.59017,7.2209c0,4.4228 2.94313,7.2209 7.59017,7.2209c6.35096,0 13.47642,3.06888 17.1166,7.31117c3.64018,4.24228 6.27351,12.54632 6.27351,19.94775c0,5.41568 2.40097,8.84561 6.19606,8.84561c3.79508,0 6.19606,-3.42993 6.19606,-8.84561c0,-7.40143 2.63332,-15.70547 6.27351,-19.94775c3.64018,-4.24228 10.76565,-7.31117 17.1166,-7.31117c4.64704,0 7.59017,-2.7981 7.59017,-7.2209c0,-4.4228 -2.94313,-7.2209 -7.59017,-7.2209c-6.35096,0 -13.47642,-3.06888 -17.1166,-7.31117c-3.64018,-4.24228 -6.27351,-12.54632 -6.27351,-19.94775c0,-5.41568 -2.40097,-8.84561 -6.19606,-8.84561c-1.47156,0 -3.09803,0.81235 -4.25979,2.25653zm8.13232,37.00713l3.40783,4.06176l-3.64018,4.33254l-3.64018,4.24228l-3.64018,-4.24228l-3.64018,-4.33254l3.40783,-4.06176c1.85882,-2.25653 3.64018,-4.06176 3.87253,-4.06176c0.23235,0 2.01372,1.80523 3.87253,4.06176z"/>
  <path id="svg_4" d="m137.9235,195.51345c-1.43523,1.58459 -1.88846,3.08114 -1.88846,5.98621c0,9.85964 -3.02153,19.80732 -7.62936,25.1773c-4.60783,5.36998 -13.14365,8.89128 -21.60394,8.89128c-6.26967,0 -9.2912,7.13063 -5.1366,11.88439c1.35969,1.67262 2.64384,2.20081 5.1366,2.20081c8.83797,0 19.11118,4.48966 22.66147,10.03571c4.23014,6.42637 6.57183,15.05356 6.57183,24.03288c0,7.3067 6.1186,10.828 10.19766,5.98621c1.43523,-1.58459 1.88846,-3.08114 1.88846,-5.98621c0,-10.2998 3.85245,-22.27223 8.61136,-26.40975c5.51429,-4.92982 12.91704,-7.65883 20.62194,-7.65883c6.26967,0 9.2912,-7.13063 5.1366,-11.88439c-1.35969,-1.67262 -2.64384,-2.20081 -5.1366,-2.20081c-8.46028,0 -16.9961,-3.5213 -21.60394,-8.89128c-4.60783,-5.36998 -7.62936,-15.31766 -7.62936,-25.1773c0,-4.84179 -2.49276,-8.18702 -6.04306,-8.18702c-1.43523,0 -3.02153,0.79229 -4.1546,2.20081l0,0zm9.2912,40.93512l5.28768,6.16228l-5.21214,6.07424l-5.21214,6.07424l-5.21214,-6.07424l-5.28768,-6.16228l5.06106,-5.98621c2.79492,-3.34524 5.1366,-6.16228 5.1366,-6.16228c0.07554,-0.08803 2.49276,2.64098 5.43875,6.07424l0,0z"/>
  <path id="svg_5" d="m330.42285,221.17561c-1.44485,1.59964 -1.80606,2.86251 -1.80606,6.14598c0,6.9037 -2.45624,14.64932 -5.85163,18.60632c-3.39539,3.957 -10.04169,6.81951 -15.96556,6.81951c-4.33454,0 -7.07975,2.60994 -7.07975,6.73532c0,4.12538 2.74521,6.73532 7.07975,6.73532c5.92387,0 12.57017,2.86251 15.96556,6.81951c3.39539,3.957 5.85163,11.70262 5.85163,18.60632c0,5.05149 2.23951,8.25076 5.77939,8.25076c3.53988,0 5.77939,-3.19928 5.77939,-8.25076c0,-6.9037 2.45624,-14.64932 5.85163,-18.60632c3.39539,-3.957 10.04169,-6.81951 15.96556,-6.81951c4.33454,0 7.07975,-2.60994 7.07975,-6.73532c0,-4.12538 -2.74521,-6.73532 -7.07975,-6.73532c-5.92387,0 -12.57017,-2.86251 -15.96556,-6.81951c-3.39539,-3.957 -5.85163,-11.70262 -5.85163,-18.60632c0,-5.05149 -2.23951,-8.25076 -5.77939,-8.25076c-1.37261,0 -2.88969,0.75772 -3.97333,2.10479zm7.58545,34.51851l3.17866,3.78862l-3.39539,4.04119l-3.39539,3.957l-3.39539,-3.957l-3.39539,-4.04119l3.17866,-3.78862c1.73382,-2.10479 3.39539,-3.78862 3.61212,-3.78862c0.21673,0 1.8783,1.68383 3.61212,3.78862z"/>
  <path id="svg_6" d="m129.7684,335.11713c-27.04935,5.5755 -39.9463,6.6375 -83.88723,6.6375l-40.2887,0l-2.73918,3.31875c-1.82612,1.99125 -2.85331,4.779 -2.85331,7.30125c0,2.52225 1.02719,5.31 2.85331,7.30125l2.73918,3.31875l40.2887,0c44.73985,0 55.58242,-0.7965 86.9688,-6.77025c12.09802,-2.25675 23.05472,-3.717 25.22323,-3.31875c1.94025,0.531 4.79356,2.3895 6.27727,4.11525c2.73918,3.31875 2.73918,3.4515 1.36959,17.65574c-1.59785,17.25749 -1.71198,27.74474 -0.22826,42.74548c4.56529,46.86073 24.65257,78.85347 56.49548,90.26997c24.65257,8.7615 50.78887,1.593 67.90871,-18.45224c12.78282,-15.00074 18.83183,-31.99274 20.20141,-56.55148c1.02719,-21.37274 -3.08157,-39.95774 -13.12521,-58.27723c-4.56529,-8.36325 -4.79356,-14.337 -0.68479,-18.71774c3.8805,-4.11525 4.90769,-4.11525 29.10373,0.531c30.92985,6.1065 41.20175,6.77025 113.21922,6.77025l67.10978,0l2.73918,-3.31875c3.42397,-3.84975 3.65223,-9.8235 0.68479,-14.0715l-2.16851,-3.186l-76.3545,-0.7965l-76.24036,-0.66375l-24.53844,-5.0445c-32.1853,-6.6375 -37.77779,-5.97375 -47.25076,5.31c-5.59248,6.77025 -7.87513,14.46974 -7.30447,24.69149c0.3424,7.1685 1.36959,10.22175 6.96207,21.50549c8.10339,16.46099 10.50017,27.87749 9.58711,44.47123c-2.05438,34.78049 -18.48943,55.75498 -45.88118,58.14448c-15.86439,1.3275 -30.70158,-5.17725 -42.34308,-18.71774c-16.89158,-19.64699 -23.16885,-52.43623 -19.40249,-100.62446c1.25545,-15.39899 -0.45653,-22.30199 -6.84794,-28.80674c-10.9567,-11.28375 -20.08728,-12.61125 -47.59316,-6.77025l0,0z"/>
 </g>

</svg>
